<?xml version="1.0" encoding="UTF-8" standalone="no"?><!DOCTYPE svg PUBLIC "-//W3C//DTD SVG 1.1//EN" "http://www.w3.org/Graphics/SVG/1.1/DTD/svg11.dtd"><svg width="100%" height="100%" viewBox="0 0 10175 10175" version="1.1" xmlns="http://www.w3.org/2000/svg" xmlns:xlink="http://www.w3.org/1999/xlink" xml:space="preserve" xmlns:serif="http://www.serif.com/" style="fill-rule:evenodd;clip-rule:evenodd;stroke-linejoin:round;stroke-miterlimit:2;"><g><rect x="6381.04" y="4072.85" width="662.379" height="204.271" style="fill:#4b799e;"/><rect x="7167.62" y="4072.85" width="662.446" height="204.271" style="fill:#4b799e;"/><rect x="6607.71" y="4723.42" width="758.733" height="204.287" style="fill:#4b799e;"/><rect x="7508.75" y="4723.42" width="758.613" height="204.287" style="fill:#4b799e;"/><rect x="6349.5" y="5386.46" width="321.875" height="204.325" style="fill:#4b799e;"/><rect x="6731.67" y="5386.46" width="321.875" height="204.325" style="fill:#4b799e;"/><rect x="7107.75" y="5386.46" width="321.875" height="204.325" style="fill:#4b799e;"/><rect x="7489.92" y="5386.46" width="321.7" height="204.325" style="fill:#4b799e;"/><rect x="7888.08" y="5386.46" width="321.892" height="204.325" style="fill:#4b799e;"/><rect x="8270.29" y="5386.46" width="321.858" height="204.325" style="fill:#4b799e;"/><rect x="8646.29" y="5386.46" width="321.892" height="204.325" style="fill:#4b799e;"/><rect x="9028.54" y="5386.46" width="321.683" height="204.325" style="fill:#4b799e;"/><rect x="6449.75" y="6016.58" width="457.692" height="204.342" style="fill:#4b799e;"/><rect x="6992.67" y="6016.58" width="457.658" height="204.342" style="fill:#4b799e;"/><rect x="7536.17" y="6016.58" width="457.779" height="204.342" style="fill:#4b799e;"/><rect x="8071.25" y="6016.58" width="457.883" height="204.342" style="fill:#4b799e;"/><rect x="8614.96" y="6016.58" width="457.571" height="204.342" style="fill:#4b799e;"/><rect x="6552.5" y="6730.38" width="364.896" height="204.254" style="fill:#4b799e;"/><rect x="6985.83" y="6730.38" width="364.654" height="204.254" style="fill:#4b799e;"/><rect x="7411.88" y="6730.38" width="364.738" height="204.254" style="fill:#4b799e;"/><rect x="7845.21" y="6730.38" width="364.742" height="204.254" style="fill:#4b799e;"/><path d="M194.029,802.187l0,8547.08l6010.75,822.933l0,-878.175c13.471,0.917 26.771,1.996 40.433,1.996l3079.69,-0c360.346,-0 653.246,-293.196 653.246,-653.267l-0,-7139.25c-0,-360.121 -292.9,-653.266 -653.246,-653.266l-3079.69,-0c-13.662,-0 -26.962,1.32 -40.433,2.137l0,-852.379l-6010.75,802.187Zm6051.21,421.434l3079.69,-0c154.396,-0 279.95,125.625 279.95,279.983l0,7139.12c0,154.396 -125.554,279.984 -279.95,279.984l-3079.69,-0.001c-13.838,0.001 -27.134,-1.925 -40.434,-4.024l0,-1984.01l279.967,-0l0,-204.342l-279.967,0l0,-509.458l159.096,-0l0,-204.238l-159.096,0l0,-1088.97l275.017,0l0,-204.287l-275.017,-0l0,-1077.38l849.617,-0l0,-204.288l-849.617,0l0,-2213.91c13.196,-2.05 26.596,-4.2 40.434,-4.2l-0,0.021Zm-1146.56,4695.01c-33.314,-17.626 -67.308,-32.646 -101.394,-46.042l24.396,-1.964c-0,0 -217.479,-96.299 -236.454,-795.146c-18.83,-698.898 207.265,-818.14 207.265,-818.14l-32.475,1.427c170.823,-87.604 317.747,-226.109 414.701,-408.769c252.665,-475.225 71.865,-1065.42 -403.452,-1318.09c-475.475,-252.416 -1065.56,-72.1 -1318.08,403.545c-103.803,195.1 -133.28,409.515 -100.529,611.961l-11.144,-17.101c-0,-0 57.264,253.581 -537.308,622.66c-594.467,369.275 -862.65,185.41 -862.65,185.41l17.05,25.208c-16.998,-10.516 -33.314,-21.266 -51.083,-30.551c-475.422,-252.652 -1065.66,-72.139 -1318.22,403.374c-252.482,475.461 -71.878,1065.46 403.492,1318.23c354.399,188.095 772.256,135.663 1066.72,-100.241l-6.378,12.388c0,-0 216.471,-178.077 840.166,156.784c492.38,264.228 565.489,523.218 574.851,620.474c-12.872,361.025 175.314,715.215 515.794,896.12c475.356,252.718 1065.58,71.996 1318.09,-403.374c252.626,-475.369 72.114,-1065.68 -403.36,-1318.17Zm-1099.1,128.133c-78.805,27.879 -303.84,58.757 -777.69,-195.388c-513.148,-275.516 -589.334,-505.658 -600.465,-574.747c7.294,-83.82 2.645,-167.496 -11.667,-249.064l3.129,4.701c0,0 -41.759,-223.869 545.401,-588.522c525.536,-326.167 764.425,-261.308 808.882,-244.258c28.613,19.446 58.272,37.543 89.373,54.095c59.162,31.401 120.132,56.085 181.861,74.274c72.284,68.839 205.301,264.228 219.116,778.004c14.116,517.705 -137.928,717.323 -220.845,787.892c-85.457,38.708 -165.335,90.315 -237.095,153.013Z" style="fill:#4b799e;"/></g></svg>